<svg width="44px" height="23px" viewBox="0 0 44 23" xmlns="http://www.w3.org/2000/svg">
  <g class="tm-logo">
    <path class="t" d="M11.8468406,21.6892958 C10.7668921,22.5834116 9.1652496,22.9731543 7.11524638,22.9731543 C3.68870209,22.9731543 1.00533977,21.1447653 1.00533977,16.867135 C1.00533977,16.1277331 1.08037359,15.3501704 1.22866989,14.4961383 L1.93699195,10.2949035 L0.000425120773,10.2949035 L0.968708535,4.54039228 L2.9419066,4.54039228 L3.57703704,0.730823151 L11.065256,0.0697395498 L10.3202319,4.54039228 L14.7516908,4.54039228 L13.7742673,10.2949035 L9.35017713,10.2949035 L8.71681804,14.1446302 C8.6801868,14.3795852 8.60515298,14.8056399 8.60515298,15.0406688 C8.60515298,16.0513376 9.20188084,16.3627621 10.0951304,16.3627621 C11.2885153,16.3627621 12.1452045,15.894701 12.926789,15.4284887 L11.8468406,21.6892958"></path>
    <path class="m" d="M35.1747762,11.9679871 C35.2114074,11.6565627 35.24981,11.3451383 35.24981,11.1521897 C35.24981,10.6076592 35.0997424,10.1395981 34.4663833,10.1395981 C33.6463961,10.1395981 33.1247021,10.7624469 32.7531465,13.095209 L31.3382738,22.5064244 L23.8500548,22.5064244 L25.4882576,11.9679871 C25.5248889,11.6565627 25.5632915,11.3451383 25.5632915,11.1521897 C25.5632915,10.6076592 25.4132238,10.1395981 24.7798647,10.1395981 C23.9617198,10.1395981 23.4400258,10.7624469 23.066628,13.095209 L21.5016167,22.5064244 L14.0518712,22.5064244 L17.0683865,4.54172347 L23.1051014,4.54172347 L23.476657,8.03994212 C24.1465765,5.31936013 26.3083156,4.07366238 28.6182802,4.07366238 C31.1881353,4.07366238 32.8281804,5.62886174 33.1247021,8.0017074 C33.7964638,5.3575209 36.0680258,4.07366238 38.3413591,4.07366238 C41.1730177,4.07366238 43.0729533,5.90205145 43.0729533,8.66271704 C43.0729533,9.28556592 43.0345507,9.71354341 42.9612882,10.1796817 L42.2529662,14.690492 C42.1046699,15.5444502 42.0662673,15.9724277 42.0662673,16.2074566 C42.0662673,16.6735949 42.2529662,16.9448617 42.6995556,16.9448617 C43.1095845,16.9448617 43.5195427,16.7901479 43.9295717,16.5952765 L42.8862544,21.9218103 C42.0662673,22.4281061 40.4279936,22.7776913 38.8264219,22.7776913 C35.6963994,22.7776913 34.3547182,20.9894598 34.3547182,18.2287203 C34.3547182,17.6842637 34.4298229,17.0231801 34.5048567,16.5169582 L35.1747762,11.9679871"></path>
  </g>
</svg>